avconv version 9.18-6:9.18-0ubuntu0.14.04.1+fdkaac, Copyright (c) 2000-2014 the Libav developers
  built on Apr 10 2015 23:18:58 with gcc 4.8 (Ubuntu 4.8.2-19ubuntu1)
Input #0, image2, from 'imagenes/Cubo%02d.png':
  Duration: 00:00:04.00, start: 0.000000, bitrate: N/A
    Stream #0.0: Video: png, rgb24, 320x240, 25 fps, 25 tbr, 25 tbn
[libx264 @ 0x12735a0] using cpu capabilities: MMX2 SSE2Fast SSSE3 SSE4.2 AVX
[libx264 @ 0x12735a0] profile High, level 1.3
Output #0, avi, to 'result/cub_umh_5.avi':
  Metadata:
    ISFT            : Lavf54.20.4
    Stream #0.0: Video: libx264, yuv420p, 320x240, q=-1--1, 25 tbn, 25 tbc
Stream mapping:
  Stream #0:0 -> #0:0 (png -> libx264)
Press ctrl-c to stop encoding
frame=  100 fps=  0 q=32764.0 Lsize=     487kB time=3.92 bitrate=1017.3kbits/s    
video:214kB audio:0kB global headers:0kB muxing overhead 127.500217%
[libx264 @ 0x12735a0] frame I:17    Avg QP:25.89  size:  6574
[libx264 @ 0x12735a0] frame P:83    Avg QP:27.93  size:  4561
[libx264 @ 0x12735a0] mb I  I16..4:  9.8% 81.4%  8.8%
[libx264 @ 0x12735a0] mb P  I16..4:  4.9% 45.6%  9.9%  P16..4: 17.6% 12.9%  4.8%  0.0%  0.0%    skip: 4.3%
[libx264 @ 0x12735a0] 8x8 transform intra:77.0% inter:78.3%
[libx264 @ 0x12735a0] coded y,uvDC,uvAC intra: 76.2% 95.4% 82.9% inter: 45.9% 61.2% 17.8%
[libx264 @ 0x12735a0] i16 v,h,dc,p: 10% 40% 13% 37%
[libx264 @ 0x12735a0] i8 v,h,dc,ddl,ddr,vr,hd,vl,hu: 20% 14% 20%  6%  6%  9%  5% 13%  7%
[libx264 @ 0x12735a0] i4 v,h,dc,ddl,ddr,vr,hd,vl,hu: 24% 11% 15%  9%  7% 10%  5% 14%  5%
[libx264 @ 0x12735a0] i8c dc,h,v,p: 43% 18% 22% 17%
[libx264 @ 0x12735a0] Weighted P-Frames: Y:19.3% UV:15.7%
[libx264 @ 0x12735a0] kb/s:980.69
bench: utime=1.318s maxrss=48584kB
